<?xml version="1.0" standalone="no"?>
<!DOCTYPE svg PUBLIC "-//W3C//DTD SVG 20010904//EN"
 "http://www.w3.org/TR/2001/REC-SVG-20010904/DTD/svg10.dtd">
<svg version="1.0" xmlns="http://www.w3.org/2000/svg"
 width="700.000000pt" height="700.000000pt" viewBox="0 0 700.000000 700.000000"
 preserveAspectRatio="xMidYMid meet">
<metadata>
Created by potrace 1.14, written by Peter Selinger 2001-2017
</metadata>
<g transform="translate(0.000000,700.000000) scale(0.100000,-0.100000)"
fill="#000000" stroke="none">
<path d="M3375 6416 c-93 -48 -146 -92 -618 -512 -850 -759 -1178 -1059 -1537
-1408 -526 -511 -780 -816 -780 -937 0 -29 30 -59 60 -59 9 0 52 30 96 68 132
112 408 330 604 479 877 663 1607 1072 2110 1180 126 27 333 25 468 -5 528
-117 1292 -566 2192 -1286 192 -154 324 -264 441 -368 78 -69 105 -80 133 -52
124 124 -567 855 -2074 2195 -789 701 -827 730 -960 737 -59 3 -72 0 -135 -32z"/>
<path d="M1648 3929 c-246 -17 -308 -69 -329 -271 -6 -67 -9 -536 -7 -1328 3
-1139 5 -1229 21 -1278 22 -65 65 -115 116 -135 101 -41 142 -42 2061 -42
1990 0 1954 -1 2059 53 73 36 97 83 111 212 13 123 13 2380 0 2511 -11 116
-30 169 -76 208 -48 42 -118 60 -279 71 -166 11 -3518 11 -3677 -1z"/>
</g>
</svg>
