<?xml version="1.0" encoding="UTF-8" standalone="no"?>
<!DOCTYPE svg PUBLIC "-//W3C//DTD SVG 1.1//EN" "http://www.w3.org/Graphics/SVG/1.1/DTD/svg11.dtd">
<svg height="100%" fill-rule="evenodd" clip-rule="evenodd" stroke-linecap="round" stroke-linejoin="round"
    xmlns:xlink="http://www.w3.org/1999/xlink" xmlns="http://www.w3.org/2000/svg" xml:space="preserve" width="100%"
    version="1.1" viewBox="0 0 1024 1024">
    <g id="Background">
        <path d="M 0 0 L 0 1024 L 1276 1024 L1276 0" opacity="1" fill="#3a4b7c" />
    </g>
    <g id="Composite">
        <path
            d="M114.077+646.791C112.114+646.57+87.1311+666.345+75.9865+680.355C64.842+694.365+69.4987+702.83+69.4987+702.83C69.4987+702.83+96.4845+713.394+104.211+727.963C104.742+728.963+141.144+701.191+142.466+699.941C145.607+696.972+114.077+646.791+114.077+646.791"
            opacity="1" fill="#eedd77" />
        <path
            d="M184.622+703.98C182.659+703.759+165.944+745.819+165.944+745.819C168.512+747.123+192.329+742.008+218.383+775.826C219.073+776.723+249.362+739.909+248.138+738.561C220.266+707.867+184.622+703.98+184.622+703.98"
            opacity="1" fill="#eedd77" />
        <path
            d="M166.509+756.56C158.98+765.844+151.679+789.667+147.241+800.332C142.597+811.493+165.612+797.474+179.425+800.929C193.238+804.384+198.247+822.274+201.195+819.68C204.824+816.486+219.294+786.192+219.294+786.192C210.669+770.415+181.171+754.731+166.357+756.551"
            opacity="1" fill="#eedd77" />
        <path
            d="M143.076+820.618C138.639+831.704+139.824+842.503+138.956+854.495C138.083+866.554+150.749+847.411+162.514+855.439C172.051+861.947+182.413+870.913+185.361+868.319C188.99+865.125+202.741+826.673+202.741+826.673C194.116+810.896+145.941+805.86+143.076+820.618"
            opacity="1" fill="#eedd77" />
        <path
            d="M138.195+866.629C129.788+883.305+133.311+894.896+133.311+894.896C145.158+888.434+181.716+892.469+184.664+889.876C188.293+886.682+187.751+876.7+187.751+876.7C179.127+860.924+141.06+851.87+138.195+866.629"
            opacity="1" fill="#eedd77" />
        <path
            d="M134.43+902.297C131.968+911.458+141.805+928.284+141.805+928.284C150.282+916.646+185.065+919.794+188.012+917.2L188.437+899.19C180.635+888.934+141.419+896.861+134.43+902.297"
            opacity="1" fill="#eedd77" />
        <path
            d="M142.158+931.75C142.158+931.75+137.473+934.598+143.036+949.058C146.074+956.958+152.469+963.997+152.469+963.997C157.967+949.987+200.968+933.401+198.955+930.028C197.452+927.509+188.709+926.904+186.458+919.869C186.458+919.869+146.993+923.19+142.158+931.75"
            opacity="1" fill="#eedd77" />
        <path
            d="M152.756+973.847L173.706+995.898C174.015+980.848+200.671+953.091+206.249+947.567C208.333+945.503+205.16+939.291+200.614+933.472C200.614+933.472+147.678+957.775+152.756+973.847"
            opacity="1" fill="#eedd77" />
        <path
            d="M176.326+999.823C178.462+1006.41+197.852+1010.63+197.852+1010.63C198.161+995.581+206.641+970.504+215.186+958.76L208.945+950.066C191.3+962.593+173.706+995.898+176.326+999.823"
            opacity="1" fill="#eedd77" />
        <path
            d="M202.266+1011.66C206.424+1014.19+226.468+1016+226.468+1016C226.777+1000.95+220.364+978.711+223.341+964.178L217.462+961.725C204.737+979.376+200.629+997.07+202.266+1011.66"
            opacity="1" fill="#eedd77" />
        <path
            d="M229.888+1009.9C234.046+1012.43+246.92+995.369+246.92+995.369C239.708+986.125+232.527+972.538+228.386+967.397C224.399+962.448+228.251+995.304+229.888+1009.9"
            opacity="1" fill="#eedd77" />
        <path
            d="M246.304+987.244C247.994+984.612+252.359+977.493+252.359+977.493C248.421+972.458+238.156+956.534+238.156+956.534C238.156+956.534+235.332+960.371+235.022+960.836C231.494+966.123+246.304+987.244+246.304+987.244"
            opacity="1" fill="#eedd77" />
        <path
            d="M257.445+969.761C259.134+967.13+259.746+964.211+259.746+964.211C255.92+961.274+247.254+952.149+243.667+946.505C243.463+946.185+239.997+946.361+239.991+948.155C239.945+962.81+257.445+969.761+257.445+969.761"
            opacity="1" fill="#eedd77" />
        <path
            d="M261.688+961.444C263.377+958.812+263.495+957.127+263.495+957.127C259.67+954.19+256.257+945.65+250+938.974C249.74+938.697+245.452+939.128+246.017+940.831C250.474+954.265+255.746+953.795+261.688+961.444"
            opacity="1" fill="#eedd77" />
        <path
            d="M263.274+952.283C264.964+949.651+264.59+945.094+261.994+939.326C259.194+933.106+249.362+927.184+248.015+932.106C247.492+934.016+257.977+944.425+263.274+952.283"
            opacity="1" fill="#eedd77" />
        <path
            d="M266.14+940.037C267.829+937.405+272.47+930.676+265.719+925.465C259.265+920.484+250.709+922.262+249.362+927.184C248.839+929.094+260.843+932.179+266.14+940.037"
            opacity="1" fill="#eedd77" />
        <path
            d="M268.003+926.202C269.692+923.57+272.881+921.736+265.517+917.435C260.4+914.446+260.612+915.562+259.265+920.484C258.742+922.394+260.23+921.086+268.194+926.215"
            opacity="1" fill="#eedd77" />
        <path
            d="M267.108+914.922C268.798+912.29+269.253+906.363+268.02+905.645C266.786+904.927+265.521+908.422+262.175+912.05C260.833+913.505+259.144+909.793+267.108+914.922"
            opacity="1" fill="#eedd77" />
        <path
            d="M62.157+697.859C61.6696+697.804+22.6433+732.278+29.1938+744.035C31.0086+747.292+59.354+753.446+74.9128+764.876C75.8248+765.546+99.1065+735.147+100.429+733.897C103.57+730.927+62.157+697.859+62.157+697.859"
            opacity="1" fill="#eedd77" />
        <path
            d="M21.8032+744.96C21.3157+744.905+8.60085+770.264+15.1513+782.02C16.9661+785.278+50.0339+785.366+68.3612+791.998C69.425+792.383+79.0829+775.244+76.5511+770.171C74.6201+766.302+21.8032+744.96+21.8032+744.96"
            opacity="1" fill="#eedd77" />
        <path
            d="M12.0533+786.728C8.84096+791.549+2.899+819.53+6.75087+826.296C8.79198+829.882+56.1364+799.952+75.5634+807.092C76.6252+807.482+75.5774+801.849+73.0455+796.776C71.1146+792.907+12.0533+786.728+12.0533+786.728"
            opacity="1" fill="#eedd77" />
        <path
            d="M7.25799+832.714C6.84557+832.98+12.4744+850.49+20.8359+857.797C23.6427+860.25+21.5522+840.346+79.195+818.844C80.2549+818.448+77.9057+812.534+72.4064+811.174C50.3723+805.723+7.25799+832.714+7.25799+832.714"
            opacity="1" fill="#eedd77" />
        <path
            d="M43.943+873.744C43.6392+873.94+56.1364+874.969+63.8079+884.578C66.1339+887.492+67.6644+863.428+95.1874+842.138C96.0824+841.445+94.5474+836.839+89.3724+834.533C83.2278+831.794+43.943+873.744+43.943+873.744"
            opacity="1" fill="#eedd77" />
        <path
            d="M71.1315+880.906C73.4955+884.955+81.5183+882.196+89.2827+885.553C90.8677+886.239+94.7598+859.542+102.56+845.101L99.4831+843.853C96.4845+846.116+73.4284+869.199+71.1315+880.906"
            opacity="1" fill="#eedd77" />
        <path
            d="M96.6436+882.699C97.805+883.738+103.186+880.422+105.342+881.358C106.926+882.045+108.013+863.428+108.761+847.999C108.761+847.999+105.967+844.679+104.993+845.788C101.811+849.412+90.7205+874.969+96.6436+882.699"
            opacity="1" fill="#eedd77" />
        <path
            d="M112.903+876.212C112.903+876.212+117.555+874.928+118.583+873.368C119.534+871.925+121.334+861.725+116.77+847.429C116.77+847.429+112.861+845.197+111.887+846.306C108.705+849.931+107.418+867.766+112.903+876.212"
            opacity="1" fill="#eedd77" />
        <path
            d="M121.526+872.563C121.526+872.563+130.017+870.743+131.069+869.199C133.57+865.525+134.798+857.542+135.548+854.908L121.325+850.372C119.061+853.839+121.526+872.563+121.526+872.563"
            opacity="1" fill="#eedd77" />
        <path
            d="M125.09+842.834C126.468+845.052+131.834+850.827+132.584+846.803C134.644+835.742+135.601+828.76+133.482+828.781C131.069+828.805+125.09+842.834+125.09+842.834"
            opacity="1" fill="#eedd77" />
        <path
            d="M115.459+842.186C116.838+844.403+117.772+848.096+118.904+844.162C120.443+838.818+125.505+829.706+123.386+829.727C120.973+829.751+115.459+842.186+115.459+842.186"
            opacity="1" fill="#eedd77" />
        <path
            d="M108.682+842.174C110.06+844.391+111.432+844.463+111.432+844.463C115.562+835.45+120.123+830.085+118.004+830.106C115.591+830.129+108.682+842.174+108.682+842.174"
            opacity="1" fill="#eedd77" />
        <path
            d="M99.9341+839.409C100.445+841.855+104.997+842.276+104.997+842.276C107.939+839.694+116.867+827.26+114.747+827.281C112.334+827.305+99.9343+839.303+99.9343+839.303"
            opacity="1" fill="#eedd77" />
        <path
            d="M95.0137+831.645C96.0907+834.189+98.3472+838.767+98.3472+838.767C103.56+830.119+113.777+817.264+111.579+816.301C106.099+813.9+95.0137+831.645+95.0137+831.645"
            opacity="1" fill="#eedd77" />
        <path
            d="M86.8611+818.279C88.2397+820.497+91.2745+824.743+91.2745+824.743C96.9516+816.447+105.787+807.429+104.018+803.691C102.249+799.952+91.1809+814.337+86.8446+818.329"
            opacity="1" fill="#eedd77" />
        <path
            d="M83.2911+805.806C84.6697+808.023+84.8479+811.535+84.8479+811.535C93.1945+805.264+106.75+798.241+104.981+794.502C103.212+790.763+87.6275+801.814+83.2911+805.806"
            opacity="1" fill="#eedd77" />
        <path
            d="M75.9955+789.557C74.2874+791.531+80.464+798.938+80.464+798.938C84.9565+788.411+106.684+785.023+104.708+781.39C102.249+776.87+84.3039+777.921+75.967+789.614"
            opacity="1" fill="#eedd77" />
        <path
            d="M82.3573+768.29C80.4902+770.24+77.981+779.455+77.981+779.455C96.4845+765.329+115.213+763.71+119.329+762.298C125.547+760.166+91.7552+750.571+82.3573+768.29"
            opacity="1" fill="#eedd77" />
        <path
            d="M103.835+737.37C102.249+736.476+88.8644+757.453+88.8644+757.453C107.368+743.327+130.485+744.623+134.6+743.212C140.818+741.079+108.013+730.705+103.835+737.37"
            opacity="1" fill="#eedd77" />
        <path
            d="M140.138+708.238C138.618+707.235+114.77+725.061+114.77+725.061C128.031+721.986+138.027+726.619+142.447+735.772C148.361+748.017+147.191+718.535+140.138+708.238"
            opacity="1" fill="#eedd77" />
        <path
            d="M247.264+746.418C245.517+746.93+219.793+777.103+219.793+777.103C237.383+770.458+249.752+777.747+257.832+784.06C273.248+796.105+251.416+751.844+247.264+746.418"
            opacity="1" fill="#eedd77" />
        <path
            d="M218.357+794.327C216.838+793.324+206.024+819.848+206.024+819.848C213.745+814.48+233.68+814.495+243.23+817.951C249.918+820.372+229.697+793.54+218.357+794.327"
            opacity="1" fill="#eedd77" />
        <path
            d="M204.012+832.321C202.33+831.251+190.546+862.565+190.546+862.565C194.822+851.565+209.706+847.718+221.061+851.431C232.259+855.093+214.665+836.137+204.012+832.321"
            opacity="1" fill="#eedd77" />
        <path
            d="M192.647+870.583C191.127+869.579+189.768+887.874+189.768+887.874C195.786+879.537+205.27+876.394+218.577+871.968C220.932+871.185+206.641+862.787+192.647+870.583"
            opacity="1" fill="#eedd77" />
        <path
            d="M190.311+896.623C189.104+897.988+192.676+914.514+192.676+914.514C196.668+900.824+213.453+883.192+217.12+878.996C220.196+875.476+198.81+888.124+190.311+896.623"
            opacity="1" fill="#eedd77" />
        <path
            d="M194.07+920.728C194.176+922.547+200.058+928.243+200.058+928.243C207.301+914.707+205.117+915.481+212.57+908.076C220.024+900.67+196.394+911.516+194.07+920.728"
            opacity="1" fill="#eedd77" />
        <path
            d="M205.208+938.459C205.314+940.278+213.685+949.295+213.685+949.295C212.803+934.106+211.765+932.034+214.047+919.128C215.878+908.776+204.079+926.904+205.208+938.459"
            opacity="1" fill="#eedd77" />
        <path
            d="M218.488+958.519L223.707+956.968C223.187+948+223.823+949.072+223.519+942.646C223.021+932.145+217.359+946.965+218.488+958.519"
            opacity="1" fill="#eedd77" />
        <path
            d="M227.04+960.245L231.652+960.45C229.697+952.551+231.942+943.368+232.089+936.937C232.259+929.469+225.911+948.691+227.04+960.245"
            opacity="1" fill="#eedd77" />
        <path
            d="M237.206+957.086L237.206+957.086C235.252+949.187+236.29+947.039+236.437+940.608C236.577+934.469+230.456+951.014+233.612+956.584C235.512+959.938+237.206+957.086+237.206+957.086"
            opacity="1" fill="#eedd77" />
        <path
            d="M241.658+943.293L237.946+936.804C237.946+936.804+237.246+943.616+238.706+944.706C241.093+946.489+241.671+943.346+241.671+943.346"
            opacity="1" fill="#eedd77" />
        <path d="M245.679+937.243L240.521+931.261L241.024+939.471C243.154+939.747+245.679+937.243+245.679+937.243"
            opacity="1" fill="#eedd77" />
        <path
            d="M240.666+509.112C223.933+517.836+143.636+595.681+140.514+600.452C135.049+608.801+127.957+645.863+127.957+645.863C145.965+675.285+151.902+703.327+155.966+703.198C162.331+702.995+187.514+698.976+207.494+705.517C227.65+712.116+244.242+726.291+250.781+731.25C258.517+737.117+293.102+639.017+346.789+608.297C346.789+608.297+324.464+574.362+294.569+548.19C270.435+527.063+241.575+508.638+240.666+509.112Z"
            opacity="1" fill="#eedd77" />
        <path
            d="M25.5273+856.954C25.2235+857.15+34.0957+872.143+38.3675+871.5C41.9518+870.961+56.1364+846.116+87.6553+831.224C88.6782+830.74+84.8705+826.398+79.6956+824.091C72.3593+820.821+25.5273+856.954+25.5273+856.954"
            opacity="1" fill="#eedd77" />
        <path
            d="M290.779+591.426C270.686+583.235+259.105+593.413+250.601+604.209C239.541+618.251+241.001+647.617+261.579+657.097C275.123+663.336+303.934+661.224+307.149+632.82C308.663+619.446+308.292+598.565+290.779+591.426Z"
            opacity="1" fill="#76744b" />
        <path
            d="M127.358+503.377C106.622+496.99+93.4354+505.249+84.9318+516.046C73.8715+530.088+70.8666+560.153+86.1641+566.952C91.7366+569.428+145.158+508.859+127.358+503.377Z"
            opacity="1" fill="#76744b" />
        <path
            d="M245.154+614.244C248.714+601.928+231.203+627.972+229.874+630.916C229.444+631.869+256.213+674.724+256.213+674.724C256.213+674.724+279.239+661.291+278.631+661.234C267.854+660.225+259.427+660.859+247.63+644.788C240.9+635.62+241.968+625.265+245.154+614.244Z"
            opacity="1" fill="#eedd77" />
        <path
            d="M86.1641+566.952C74.6694+561.298+124.664+598.624+130.891+596.204C130.891+596.204+148.894+564.45+170.776+557.474C174.11+556.411+156.32+554.025+152.952+542.206C148.618+526.997+139.048+510.413+138.916+510.733C133.189+524.583+96.45+572.011+86.1641+566.952Z"
            opacity="1" fill="#eedd77" />
        <path
            d="M819.758+287.922C811.223+280.602+799.695+245.978+777.393+245.475C776.358+245.451+799.787+229.54+800.516+229.056C801.054+228.699+837.927+252.697+847.856+260.493"
            opacity="1" fill="#eedd77" />
        <path
            d="M847.833+267.03C839.298+259.71+1062.87+205.099+1067.3+218.512C1076.37+245.978+832.488+288.43+828.188+285.746"
            opacity="1" fill="#eedd77" />
        <path
            d="M771.333+239.66C753.583+165.19+730.527+84.4025+775.555+37.2782C792.255+19.8012+804.507+221.093+799.796+222.96"
            opacity="1" fill="#eedd77" />
        <path
            d="M806.4+227.268C807.478+150.71+788.167+84.4025+850.515+32.3316C857.305+26.6609+840.905+204.046+836.194+205.913"
            opacity="1" fill="#eedd77" />
        <path
            d="M848.14+205.871C834.279+130.567+868.863+61.3203+909.161+47.4058C917.52+44.5194+903.447+153.649+880.206+189.351"
            opacity="1" fill="#eedd77" />
        <path
            d="M849.041+258.605C840.506+251.285+831.178+231.448+808.876+230.944C807.841+230.921+830.58+212.823+838.046+213.384C843.783+213.815+868.166+222.522+875.193+232.484"
            opacity="1" fill="#eedd77" />
        <path
            d="M883.125+230.891C882.09+230.867+1089.38+163.793+1095.96+172.277C1099.42+176.732+847.928+252.427+854.181+261.292"
            opacity="1" fill="#eedd77" />
        <path
            d="M848.405+208.29C853.702+198.631+884.336+198.405+889.141+201.806C896.501+207.017+887.458+225.036+882.548+230.694"
            opacity="1" fill="#eedd77" />
        <path
            d="M908.871+198.905C919.606+192.264+1087.9+128.022+1093.17+130.645C1106.81+137.436+890.781+223.458+891.924+222.987"
            opacity="1" fill="#eedd77" />
        <path
            d="M313.463+542.765C291.062+523.358+222.231+499.978+223.293+488.342C224.308+477.215+267.39+434.705+273.809+435.816C293.115+439.157+357.08+470.478+378.771+503.95C398.214+533.952+442.039+595.644+430.798+603.753C416.829+613.828+393.626+626.835+384.685+626.835C373.157+626.835+315.343+544.81+313.463+542.765"
            opacity="1" fill="#eedd77" />
        <path
            d="M439.655+456.911C382.095+380.418+326.687+388.151+350.101+372.931C350.101+372.931+380.65+350.401+391.347+349.444C411.812+347.613+458.386+376.084+483.601+422.794C505.948+464.191+529.134+534.662+523.847+544.156C514.967+560.104+488.438+569.13+486.698+557.546C484.959+545.962+439.655+456.911+439.655+456.911"
            opacity="1" fill="#eedd77" />
        <path
            d="M361.449+477.068C304.703+420.257+259.119+442.83+291.976+415.804C304.881+405.189+327.332+382.936+338.573+384.472C372.298+389.08+412.376+430.818+430.798+453.718C459.192+489.017+479.926+544.49+476.867+572.257C475.997+580.154+442.326+592.212+442.326+592.212C424.659+592.583+441.84+554.298+361.449+477.068"
            opacity="1" fill="#eedd77" />
        <path
            d="M587.176+375.253C575.648+352.171+555.505+327.113+512.752+300.76C507.069+297.257+520.921+292.49+548.587+292.144C567.035+291.914+586.98+317.551+598.072+338.039C605.87+352.442+612.394+365.539+617.839+377.4C649.384+446.108+644.74+473.342+641.803+472.683C637.803+471.786+610.026+501.182+613.145+488.689C624.673+442.525+599.565+409.998+587.176+375.253"
            opacity="1" fill="#eedd77" />
        <path
            d="M612.044+353.607C603.5+326.62+584.563+316.663+572.697+298.754C569.008+293.185+578.369+296.929+601.529+297.523C607.479+297.676+624.835+323.521+635.761+344.097C644.203+359.996+671.931+439.622+665.994+447.936C655.649+462.421+649.83+465.259+649.83+465.259C639.269+472.414+652.736+426.627+612.044+353.607"
            opacity="1" fill="#eedd77" />
        <path
            d="M647.96+360.374C639.416+333.387+618.176+305.163+606.673+297.023C603.489+294.771+608.495+294.868+631.655+295.462C637.605+295.615+658.323+332.426+667.693+353.758C674.62+369.53+690.819+426.789+683.133+434.483C676.602+441.022+672.886+442.177+672.886+442.177C662.325+449.332+681.263+439.879+647.96+360.374"
            opacity="1" fill="#eedd77" />
        <path
            d="M672.361+353.303C663.817+326.316+651.484+317.484+639.619+299.574C635.929+294.005+629.916+291.265+653.076+291.859C659.026+292.012+677.392+324.883+688.318+345.46C696.76+361.358+712.127+403.087+706.19+411.401C695.844+425.887+690.819+429.354+690.819+429.354C680.258+436.508+698.504+429.354+672.361+353.303"
            opacity="1" fill="#eedd77" />
        <path
            d="M689.412+339.562C676.858+313.53+673.737+308.913+665.593+300.019C658.281+292.034+658.489+283.656+681.65+284.25C687.6+284.402+706.133+304.01+717.058+324.586C725.5+340.485+734.58+365.634+732.602+386.286C731.868+393.961+714.917+408.332+711.313+403.707C703.26+393.37+703.094+364.912+689.351+339.363"
            opacity="1" fill="#eedd77" />
        <path
            d="M724.473+322.81C711.826+297.489+699.089+299.787+687.223+281.877C683.534+276.309+719.67+264.185+736.024+262.536C741.946+261.939+752.877+272.318+765.111+292.143C768.802+298.125+788.548+329.428+788.167+338.307C787.836+346.01+745.658+389.097+742.055+384.472C734.001+374.135+738.215+348.359+724.473+322.81"
            opacity="1" fill="#eedd77" />
        <path
            d="M774.197+297.214C774.197+297.214+757.647+273.525+747.096+257.6C743.407+252.031+764.034+247.845+771.491+247.548C777.438+247.311+790.102+256.035+801.594+276.3C813.624+297.513+811.675+304.21+809.876+311.673C808.07+319.168+800.707+330.347+793.919+334.656C788.167+338.307+774.197+297.214+774.197+297.214"
            opacity="1" fill="#eedd77" />
        <path
            d="M486.22+419.814C457.197+367.999+394.166+345.014+410.361+335.327C419.942+329.597+415.219+329.52+435.229+321.677C455.239+313.834+527.066+391.663+527.066+391.663C527.066+391.663+588.497+509.6+565.44+521.141L548.697+531.526C520.98+548.719+527.242+483.939+486.22+419.814"
            opacity="1" fill="#eedd77" />
        <path
            d="M546.078+407.554C516.017+347.363+433.417+323.786+453.854+315.225C476.476+305.748+488.438+303.684+488.438+303.684C488.438+303.684+534.006+288.579+581.418+380.524C615.892+447.379+617.341+471.287+609.086+493.146C609.086+493.146+584.892+517.615+580.662+511.424C559.058+479.805+580.662+476.801+546.078+407.554"
            opacity="1" fill="#eedd77" />
        <path
            d="M367.713+590.823C364.725+606.944+430.13+657.38+464.544+666.085C489.987+672.52+557.606+693.254+557.606+670.172C557.606+656.051+433.023+578.61+430.565+576.299C418.602+565.051+372.489+565.051+367.713+590.823Z"
            opacity="1" fill="#eedd77" />
        <path
            d="M367.713+590.823C364.725+606.944+430.13+657.38+464.544+666.085C489.987+672.52+557.606+693.254+557.606+670.172C557.606+656.051+433.023+578.61+430.565+576.299C418.602+565.051+372.489+565.051+367.713+590.823Z"
            opacity="1" fill="#eedd77" />
        <path
            d="M367.713+590.823C364.725+606.944+430.13+657.38+464.544+666.085C489.987+672.52+557.606+693.254+557.606+670.172C557.606+656.051+433.023+578.61+430.565+576.299C418.602+565.051+372.489+565.051+367.713+590.823Z"
            opacity="1" fill="#eedd77" />
        <path
            d="M153.638+536.69C176.632+538.914+234.821+534.506+226.656+504.698C222.925+491.081+131.069+534.506+153.638+536.69Z"
            opacity="1" fill="#eedd77" />
        <path
            d="M154.949+489.014C151.961+505.135+187.066+501.515+220.52+489.636C249.765+479.251+270.361+483.215+270.361+460.133C270.361+446.012+244.451+455.084+212.74+459.877C196.512+462.329+154.949+489.014+154.949+489.014Z"
            opacity="1" fill="#eedd77" />
        <path
            d="M179.19+426.286C168.305+438.536+249.62+440.485+284.034+449.19C284.034+449.19+303.686+450.911+303.686+427.828C303.686+413.708+186.506+418.052+179.19+426.286Z"
            opacity="1" fill="#eedd77" />
        <path
            d="M204.656+380.814C188.337+382.202+221.396+404.146+236.055+418.944C236.055+418.944+337.313+422.149+337.313+399.067C337.313+384.946+230.612+378.606+204.656+380.814Z"
            opacity="1" fill="#eedd77" />
        <path
            d="M248.072+339.155C264.529+357.876+275.65+383.056+347.059+390.142L364.97+374.352C364.97+374.352+230.863+319.578+248.072+339.155Z"
            opacity="1" fill="#eedd77" />
        <path
            d="M323.315+332.354C306.996+333.742+343.774+366.046+375.575+364.512L396.207+348.137C396.207+334.016+323.315+332.354+323.315+332.354Z"
            opacity="1" fill="#eedd77" />
        <path
            d="M392.627+307.658C373.157+303.684+389.893+339.788+421.694+338.254L446.174+323.091C430.01+303.153+392.627+307.658+392.627+307.658Z"
            opacity="1" fill="#eedd77" />
        <path d="M455.751+296.272C439.432+297.66+454.571+319.032+454.571+319.032L476.91+306.642L455.751+296.272Z"
            opacity="1" fill="#eedd77" />
        <path
            d="M680.112+243.67C672.886+245.978+649.83+257.519+672.829+285.153L699.561+272.67C703.454+258.252+687.137+241.427+680.112+243.67Z"
            opacity="1" fill="#eedd77" />
        <path
            d="M630.772+282.342C626.774+292.143+649.83+292.143+652.044+289.283C655.47+284.857+633.559+275.508+630.772+282.342Z"
            opacity="1" fill="#eedd77" />
        <path
            d="M568.463+292.119C571.2+296.964+587.184+293.147+587.184+293.147C580.662+280.602+564.832+285.693+568.463+292.119Z"
            opacity="1" fill="#eedd77" />
        <path
            d="M504.206+302.69C501.033+309.586+517.08+302.09+517.08+302.09C511.494+280.602+505.928+298.947+504.206+302.69Z"
            opacity="1" fill="#eedd77" />
        <path
            d="M703.352+218.238C684.414+222.896+693.064+249.245+712.305+267.852L747.318+252.967C742.055+234.437+730.573+211.542+703.352+218.238Z"
            opacity="1" fill="#eedd77" />
        <path
            d="M409.531+555.916C396.974+566.442+452.952+558.007+500.684+609.636C513.6+623.607+616.714+677.34+639.243+672.434C659.787+667.96+494.408+551.412+473.844+535.885C465.531+529.609+421.071+546.242+409.531+555.916Z"
            opacity="1" fill="#eedd77" />
        <path
            d="M456.634+521.524C444.077+532.05+513.716+533.385+561.449+585.014C574.365+598.984+689.996+681.367+712.525+676.461C733.069+671.987+539.34+521.837+518.776+506.31C510.463+500.033+468.174+511.85+456.634+521.524Z"
            opacity="1" fill="#eedd77" />
        <path
            d="M515.878+489.11C499.846+492.462+544+512.355+599.646+552.56C615.064+563.701+777.874+668.801+799.592+661.051C805.357+658.993+567.745+474.448+554.65+479.532C542.89+484.097+533.944+485.333+515.878+489.11Z"
            opacity="1" fill="#eedd77" />
        <path
            d="M555.549+459.095C542.992+469.621+631.501+517.128+679.69+544.46C696.234+553.843+839.902+593.744+862.431+588.838C871.912+586.774+721.621+551.823+684.414+522.965C640.999+489.291+616.876+450.47+595.523+455.88C574.171+461.29+567.089+449.421+555.549+459.095Z"
            opacity="1" fill="#eedd77" />
        <path
            d="M585.001+433.71C568.68+432.351+685.356+486.942+718.896+499.988C736.773+506.942+812.372+539.459+834.902+534.552C845.708+532.199+761.079+512.951+707.075+485.077C658.41+459.958+629.234+426.928+615.013+430.975C604.997+433.826+596.281+434.649+585.001+433.71Z"
            opacity="1" fill="#eedd77" />
        <path
            d="M621.379+419.344C608.228+421.859+698.438+473.636+725.817+486.4C740.411+493.203+825.779+529.122+820.515+520.218C815.872+512.364+781.326+483.656+724.863+461.348C681.424+444.185+663.19+424.934+648.682+412.431C642.136+406.79+628.762+417.933+621.379+419.344Z"
            opacity="1" fill="#eedd77" />
        <path
            d="M645.662+397.005C629.341+395.646+693.361+440.154+726.9+453.2C744.778+460.154+782.815+490.407+805.344+485.501C816.15+483.148+798.516+472.713+744.512+444.838C730.619+437.668+696.168+401.973+676.461+398.417C666.215+396.569+656.942+397.943+645.662+397.005Z"
            opacity="1" fill="#eedd77" />
        <path
            d="M672.467+385.512C656.146+384.153+703.227+423.023+736.767+436.069C754.645+443.023+793.776+464.675+816.305+459.769C827.112+457.415+803.688+442.711+748.3+417.703C679.287+386.543+713.511+379.605+699.29+383.652C689.275+386.503+683.746+386.45+672.467+385.512Z"
            opacity="1" fill="#eedd77" />
        <path
            d="M698.684+371.873C682.363+370.515+718.91+402.405+752.45+415.45C770.328+422.404+801.149+442.392+812.084+444.437C812.084+444.437+821.472+429.685+767.467+401.81C718.802+376.691+733.606+360.982+719.385+365.03C709.369+367.881+709.963+372.812+698.684+371.873Z"
            opacity="1" fill="#eedd77" />
        <path
            d="M732.024+358.223C715.301+358.793+756.218+394.886+771.271+397.88C802.383+404.07+814.844+416.647+834.231+410.889C844.833+407.741+840.128+403.2+786.123+375.325C737.458+350.206+764.77+346.935+750.549+350.983C740.534+353.834+743.336+357.838+732.024+358.223Z"
            opacity="1" fill="#eedd77" />
        <path
            d="M791.02+311.904C776.817+320.068+786.237+327.721+819.777+340.767C837.655+347.721+858.896+335.634+881.425+330.728C892.231+328.375+875.946+328.408+844.984+313.354C825.884+304.068+834.279+292.143+822.471+293.647C812.143+294.963+801.928+305.635+791.02+311.904Z"
            opacity="1" fill="#eedd77" />
        <path
            d="M752.252+343.968C752.252+343.968+758.686+356.728+792.225+369.773C810.103+376.727+858.777+369.104+858.777+369.104C858.777+369.104+816.792+351.958+817.111+352.124C817.111+352.124+800.265+341.365+781.16+326.214C772.999+319.742+750.549+350.983+752.252+343.968Z"
            opacity="1" fill="#eedd77" />
    </g>
</svg>