<?xml version="1.0" encoding="UTF-8" standalone="no"?>
<!DOCTYPE svg PUBLIC "-//W3C//DTD SVG 1.1//EN" "http://www.w3.org/Graphics/SVG/1.1/DTD/svg11.dtd">
<svg height="100%" style="fill-rule:nonzero;clip-rule:evenodd;stroke-linecap:round;stroke-linejoin:round;"
    xmlns:xlink="http://www.w3.org/1999/xlink" xmlns="http://www.w3.org/2000/svg" xml:space="preserve" width="100%"
    version="1.1" viewBox="0 0 1024 1024">
    <defs />
    <g id="background">
        <path stroke="#3a4b7c" stroke-width="25.74"
            d="M1.40938e-05-3.14662e-05L1024-3.14662e-05L1024+1024L1.40938e-05+1024L1.40938e-05-3.14662e-05Z"
            fill="#3a4b7c" stroke-linecap="round" opacity="1" stroke-linejoin="round" />
    </g>
    <g id="main">
        <path stroke="#eedd77" stroke-width="25.74"
            d="M-297.354+542.098L-291.354+542.098C-289.973+542.098-288.854+543.218-288.854+544.598L-288.854+544.598C-288.854+545.979-289.973+547.098-291.354+547.098L-297.354+547.098C-298.734+547.098-299.854+545.979-299.854+544.598L-299.854+544.598C-299.854+543.218-298.734+542.098-297.354+542.098Z"
            fill="#eedd77" stroke-linecap="round" opacity="1" stroke-linejoin="round" />
        <path stroke="#eedd77" stroke-width="2"
            d="M720+140L520+360L500+359.532C500+359.532+320.101+160.101+300+140C280+120+260+120+240+140C220+160+120+340+100+360C80+380+40+380+40+360C40+340+220+80+240+60C260+40+279.648+40.358+300+60C321.089+80.3537+432.268+234.24+500+280C508.842+285.973+519.804+280+519.804+280C519.804+280+700+80+720+60C740+40+760+40+780+60C800+80+980+340+980+360C980+380+940+380+920+360C900+340+800+160+780+140C760+120+740+120+720+140"
            fill="#eedd77" stroke-linecap="butt" opacity="1" stroke-linejoin="miter" />
        <path d="M500+260L520+260L520+336.695L520+380L500+380L500+260Z" fill-opacity="0.994129" fill="#3a4b7c"
            opacity="1" />
        <path stroke="#eedd77" stroke-width="1"
            d="M440+620C440+620+258.757+618.75+60+620C40+620+40+620+40+640C40+745.21+38.9867+834.658+39.8547+939.862C39.9699+953.82+40+960+60+960C80+960+60+960+60+960L60+960C60+960+269.77+960+440+960C440+929.936+440+880+440+880.35C440+880.35+440+899.759+419.94+899.88C400+900+119.634+899.993+119.634+899.993C100+900+100+900+100+880.355C100+830.117+100+720+100+700C100+680+100+679.991+120+680C139.17+680.008+314.307+680.396+420.142+680.05C425.385+680.033+400.308+680.1+420.142+680.05C440+680+440+680+440+700C440+791.964+440+868.036+440+960C440+980+440+980+460+980C480+980+460+980+480+980C495.577+980+499.872+980+500+960C500.118+941.584+500+960+500+960L500+960L500+960C500+960+502.909+567.142+500+420C499.923+416.094+500+431.454+500+420C500+400+500+400+480+400C460+400+480+400+460+400C440+400+440+400+440+420C440+477.202+440+620+440+620Z"
            fill="#eedd77" stroke-linecap="butt" opacity="1" stroke-linejoin="miter" />
        <path stroke="#9a8a4a" stroke-width="1"
            d="M920.386+620C920.386+620+739.143+618.75+540.386+620C520.386+620+520.386+620+520.386+640C520.386+745.21+519.369+834.151+520.237+939.356C520.352+953.314+520+960+540+960C560+960+580.386+960+580.386+960L580.386+960C580.386+960+750.156+960+920.386+960C920.386+929.936+920.386+880+920.386+880.35C920.386+880.35+920.386+899.759+900.326+899.88C880.386+900+600.02+899.993+600.02+899.993C580.386+900+580.386+900+580.386+880.355C580.386+830.117+580.386+720+580.386+700C580.386+680+580.386+679.991+600.386+680C619.556+680.008+794.692+680.396+900.528+680.05C905.771+680.033+880.694+680.1+900.528+680.05C920.386+680+920.386+680+920.386+700C920.386+791.964+920.386+868.036+920.386+960C920.386+980+920.386+980+940.386+980C960.386+980+940.386+980+960.386+980C971.639+980+980+980+980+960C980+940+980+940+980+940L980+940L980+940C980+940+983.295+567.142+980.386+420C980.309+416.094+980.386+431.454+980.386+420C980.386+400+980.386+400+960.386+400C940.386+400+960.386+400+940.386+400C920.386+400+920.386+400+920.386+420C920.386+477.202+920.386+620+920.386+620Z"
            fill="#9a8a4a" stroke-linecap="butt" opacity="1" stroke-linejoin="miter" />
    </g>
</svg>